<svg version="1.0" xmlns="http://www.w3.org/2000/svg"
     width="32.000000pt" height="32.000000pt" viewBox="0 0 32.000000 32.000000"
     preserveAspectRatio="xMidYMid meet">

    <g transform="translate(0.000000,32.000000) scale(0.100000,-0.100000)"
       fill="#990000" stroke="none"> <!-- Thay đổi fill="blue" -->
        <path d="M91 274 c-59 -49 -47 -131 33 -219 l36 -40 36 40 c50 55 77 118 70
160 -9 47 -57 85 -106 85 -27 0 -48 -8 -69 -26z m49 -44 c0 -13 7 -20 20 -20
13 0 20 7 20 20 0 11 5 20 10 20 6 0 10 -25 10 -55 0 -30 -4 -55 -10 -55 -5 0
-10 11 -10 25 0 18 -5 25 -20 25 -15 0 -20 -7 -20 -25 0 -14 -4 -25 -10 -25
-5 0 -10 25 -10 55 0 30 5 55 10 55 6 0 10 -9 10 -20z"/>
    </g>
</svg>
